<svg width="1024" height="1024" viewBox="0 0 1024 1024" xmlns="http://www.w3.org/2000/svg" role="img" aria-label="BallonsTranslator Pro logo">
  <defs>
    <linearGradient id="bg" x1="0" y1="0" x2="1" y2="1">
      <stop offset="0%" stop-color="#1E93E5"/>
      <stop offset="100%" stop-color="#0A4E8A"/>
    </linearGradient>
    <linearGradient id="bubble" x1="0" y1="0" x2="1" y2="1">
      <stop offset="0%" stop-color="#FFFFFF"/>
      <stop offset="100%" stop-color="#E8F5FF"/>
    </linearGradient>
    <filter id="shadow" x="-20%" y="-20%" width="140%" height="140%">
      <feDropShadow dx="0" dy="10" stdDeviation="12" flood-color="#082540" flood-opacity="0.35"/>
    </filter>
  </defs>

  <rect x="56" y="56" width="912" height="912" rx="220" fill="url(#bg)"/>

  <g filter="url(#shadow)">
    <ellipse cx="510" cy="448" rx="300" ry="210" fill="url(#bubble)"/>
    <path d="M366 602 L328 732 L476 626 Z" fill="url(#bubble)"/>
    <ellipse cx="620" cy="370" rx="74" ry="46" fill="#FFFFFF" opacity="0.7"/>
  </g>

  <g fill="#0D5E9E">
    <rect x="332" y="352" width="48" height="198" rx="22"/>
    <rect x="332" y="352" width="138" height="48" rx="22"/>
    <rect x="332" y="446" width="122" height="44" rx="20"/>

    <rect x="510" y="352" width="46" height="198" rx="22"/>
    <rect x="510" y="352" width="166" height="48" rx="22"/>
    <rect x="510" y="446" width="128" height="44" rx="20"/>
  </g>

  <g>
    <rect x="608" y="600" width="228" height="88" rx="44" fill="#FFCC33"/>
    <text x="722" y="657" text-anchor="middle" font-family="Arial, Helvetica, sans-serif" font-size="58" font-weight="700" fill="#5E3D00">PRO</text>
  </g>
</svg>
