<?xml version="1.0" encoding="UTF-8"?>
<svg class="icon" viewBox="0 0 1024 1024" xmlns="http://www.w3.org/2000/svg" width="128" height="128">
  <path d="M696 224c-58-65-139-95-236-86-111 10-190 72-190 157 0 72 55 112 159 145l178 56c137 43 207 113 207 225 0 136-122 221-312 221-148 0-267-52-347-153l70-83c65 78 154 118 274 118 112 0 187-39 187-102 0-50-39-83-126-111l-186-59c-147-47-226-126-226-252 0-133 119-244 299-259 133-12 251 31 326 116z" fill="#96a4cd"/>
  <rect x="132" y="470" width="760" height="86" rx="43" fill="#96a4cd"/>
</svg>
